<svg xmlns="http://www.w3.org/2000/svg" width="266" height="100" fill="none">
  <g clip-path="url(#a)">
    <path fill="#000" d="M94.056 42.55v2.915h5.803v11.648h-5.803v2.915h14.733v-2.915h-5.69V42.549h-9.043Zm4.916-4.367c0 1.423.83 2.423 2.451 2.423 1.619 0 2.45-1 2.45-2.423 0-1.422-.831-2.422-2.45-2.422-1.62 0-2.451 1-2.451 2.422Zm14.479 4.366v17.465h3.239V48.746c0-2.507.859-3.633 2.775-3.633 1.915 0 2.774 1.14 2.774 3.633v11.268h3.24V48.746c0-2.535.859-3.633 2.775-3.633 1.915 0 2.774 1.112 2.774 3.633v11.268h3.24V47.845c0-3.465-2.099-5.76-5.24-5.76-1.648 0-3.155.732-4.014 1.915h-.591c-.86-1.225-2.155-1.916-3.747-1.916-1.648 0-2.887.578-3.563 1.634h-.409V42.55h-3.253Zm42.704 16.902V42.549h-3.24v1.578h-.887c-.831-1.226-2.676-2.043-4.662-2.043-4.662 0-7.774 3.437-7.774 8.62 0 5.099 3.126 8.507 7.774 8.507 1.916 0 3.775-.76 4.662-1.915h.887v1.859c0 2.676-1.887 4.253-5.07 4.253-2.535 0-4.422-1.042-5.07-2.788h-3.183c.183 3.436 3.478 5.704 8.253 5.704 5.155-.014 8.31-2.746 8.31-6.873Zm-13.324-8.747c0-3.465 1.944-5.591 5.127-5.591s5.127 2.126 5.127 5.591c0 3.465-1.944 5.592-5.127 5.592s-5.127-2.127-5.127-5.592Zm28.648-8.62c-2.127 0-4.071.874-4.887 2.212h-.888v-1.747h-3.239v23.296h3.239v-7.577h.888c.816 1.338 2.774 2.21 4.887 2.21 4.775 0 7.958-3.675 7.958-9.196s-3.183-9.197-7.958-9.197Zm-5.887 9.212c0-3.817 2-6.17 5.309-6.17 3.296 0 5.31 2.353 5.31 6.17 0 3.817-2 6.169-5.31 6.169-3.309 0-5.309-2.366-5.309-6.17Zm18.845-8.747v2.916h4.14v11.648h-4.14v2.915h13.746v-2.915h-6.366v-6.409c0-3.704 1.155-5.591 3.422-5.591 1.831 0 2.775 1.07 2.775 3.14v2.057h3.352v-2.521c0-3.55-1.915-5.705-5.07-5.705-1.676 0-3.071.634-3.831 1.803h-.888V42.55h-7.14Zm30.042 17.944c5.211 0 8.69-3.676 8.69-9.197 0-5.521-3.479-9.197-8.69-9.197-5.211 0-8.69 3.676-8.69 9.197 0 5.52 3.465 9.197 8.69 9.197Zm-5.451-9.197c0-3.817 2.071-6.17 5.451-6.17 3.394 0 5.451 2.353 5.451 6.17 0 3.817-2.057 6.169-5.451 6.169-3.394 0-5.451-2.366-5.451-6.17ZM227 60.028h3.718l4.127-6.056.324-.845h.296l.324.845 4.07 6.056h3.944l-5.747-8.591 6.099-8.888h-3.62l-4.62 6.705-.323.845h-.296l-.324-.845-4.423-6.705h-3.887l6.042 9.17-5.704 8.31Zm20.69-17.479 6.338 16.014h2.648l-1.056 2.972c-.535 1.31-1.057 1.86-2.028 1.86-1.057 0-1.62-.55-2.184-1.86h-2.943c.239 3.056 2.155 4.775 5.31 4.775 2.126 0 3.859-1.395 4.718-3.789l7.127-19.972h-3.296l-4.62 13.099h-1.267l-5.155-13.099h-3.592Z"/>
    <mask id="b" width="94" height="79" x="0" y="22" maskUnits="userSpaceOnUse" style="mask-type:luminance">
      <path fill="#fff" d="M.394 22.535h92.817v78.169H.394V22.535Z"/>
    </mask>
    <g mask="url(#b)">
      <path fill="url(#c)" d="M78.493 32.732V22.535H68.31v2.831H44.535v-2.83H34.352v2.83H10.577v-2.83H.394v10.196h2.831v12.465H.395v10.197h2.83V67.86H.395v10.197h10.182v-2.845h23.775v2.831h10.183v-2.83H68.31v2.83h10.183V67.845h-2.831V55.38h2.83V45.183h-2.83V32.718h2.83v.014Zm-41.873-7.93h5.662v5.663H36.62v-5.662ZM2.662 30.466v-5.662h5.662v5.662H2.662Zm0 22.662v-5.662h5.662v5.662H2.662Zm5.662 22.648H2.662v-5.662h5.662v5.662Zm33.958 0H36.62v-5.662h5.662v5.662Zm26.028-5.099H44.535v-2.83H34.352v2.83H10.577v-2.83h-2.83V55.38h2.83V45.183h-2.83V32.718h2.83v-2.83h23.775v2.83h10.183v-2.83H68.31v2.83h2.83v12.465h-2.83V55.38h2.83v12.465h-2.83v2.831Zm7.93-.563v5.662h-5.663v-5.662h5.662Zm0-22.648v5.662h-5.663v-5.662h5.662Zm-5.663-17v-5.662h5.662v5.662h-5.662Z"/>
      <path fill="#1960C4" d="M22.55 45.192v.864h.592a1.98 1.98 0 0 1 .8-.848 2.36 2.36 0 0 1 1.2-.304c.778 0 1.37.293 1.776.88.405.587.608 1.445.608 2.576v1.552h-2.544V48.68c0-.459-.086-.8-.256-1.024-.17-.235-.432-.352-.784-.352-.438 0-.763.197-.976.592-.203.395-.304.997-.304 1.808v3.072h2.8V55h-6.88v-2.224h1.664v-5.36h-1.872v-2.224h4.176ZM35.545 55v-9.808h2.496V55h-2.496Zm-3.44-4.192c0 .715.144 1.253.432 1.616.288.363.715.544 1.28.544.576 0 1.008-.181 1.296-.544.288-.363.432-.901.432-1.616h.368v3.312h-.96a2.293 2.293 0 0 1-.896.88c-.384.203-.827.304-1.328.304-.65 0-1.21-.155-1.68-.464-.459-.31-.816-.752-1.072-1.328-.245-.587-.368-1.28-.368-2.08v-6.24h2.496v5.616Zm14.019 4.448c-.49 0-.933-.107-1.328-.32a2.085 2.085 0 0 1-.88-.864h-.592V55h-2.496V41.432h2.496v4.672h.592c.192-.352.485-.635.88-.848.395-.213.837-.32 1.328-.32.79 0 1.477.213 2.064.64.597.416 1.056 1.013 1.376 1.792.32.768.48 1.68.48 2.736 0 1.045-.16 1.957-.48 2.736-.32.768-.779 1.365-1.376 1.792-.587.416-1.275.624-2.064.624Zm-2.944-5.168c0 .928.192 1.653.576 2.176.395.512.944.768 1.648.768s1.248-.256 1.632-.768c.395-.523.592-1.248.592-2.176 0-.928-.197-1.648-.592-2.16-.384-.512-.928-.768-1.632-.768-.704 0-1.253.261-1.648.784-.384.512-.576 1.227-.576 2.144Zm10.835-4.896 2.256 7.072h1.376L57.12 54.2h-2.704l-2.96-9.008h2.56Zm4.144 10.864c-.245.8-.624 1.408-1.136 1.824-.501.416-1.125.624-1.872.624-.928 0-1.659-.256-2.192-.768-.523-.512-.832-1.259-.928-2.24h2.192c.117.32.245.544.384.672a.715.715 0 0 0 .528.208.623.623 0 0 0 .496-.224c.139-.139.261-.373.368-.704l2.848-10.256h2.368L58.16 56.056Z"/>
      <path fill="url(#d)" fill-rule="evenodd" d="M81.437 91.746h10.957L73.606 72.945l7.83 18.802Z" clip-rule="evenodd"/>
      <path fill="url(#e)" fill-rule="evenodd" d="M73.606 72.944v26.62l7.817-7.832" clip-rule="evenodd"/>
    </g>
  </g>
  <defs>
    <linearGradient id="c" x1="39.445" x2="39.445" y1="78.046" y2="22.535" gradientUnits="userSpaceOnUse">
      <stop stop-color="#1D40B2"/>
      <stop offset="1" stop-color="#1680D6"/>
    </linearGradient>
    <linearGradient id="d" x1="76.587" x2="89.416" y1="84.063" y2="80.629" gradientUnits="userSpaceOnUse">
      <stop stop-color="#1C1C1C"/>
      <stop offset="1" stop-color="#3D3E3F"/>
    </linearGradient>
    <linearGradient id="e" x1="70.287" x2="79.541" y1="87.15" y2="84.673" gradientUnits="userSpaceOnUse">
      <stop stop-color="#1C1C1C"/>
      <stop offset="1" stop-color="#3D3E3F"/>
    </linearGradient>
    <clipPath id="a">
      <path fill="#fff" d="M0 0h266v100H0z"/>
    </clipPath>
  </defs>
</svg>
