<svg xmlns="http://www.w3.org/2000/svg" width="330" height="108" fill="none">
  <path fill="#005568" fill-opacity=".5" d="M72 20H20v6h52v-6Zm0 62H20v6h52v-6ZM0 40h6v28H0V40Zm92 0h-6v28h6V40Z"/>
  <path fill="#53D1FF" d="M8 20h14v6H8a2 2 0 0 0-2 2v14H0V28a8 8 0 0 1 8-8Zm62 0v6h14a2 2 0 0 1 2 2v14h6V28a8 8 0 0 0-8-8H70Zm14 62H70v6h14a8 8 0 0 0 8-8V66h-6v14a2 2 0 0 1-2 2ZM6 80V66H0v14a8 8 0 0 0 8 8h14v-6H8a2 2 0 0 1-2-2Zm86.608 10.229 4.578 16.787c.306 1.121 1.807 1.328 2.405.332L104 100l7.348-4.409c.996-.598.789-2.099-.332-2.405l-16.787-4.578a1.32 1.32 0 0 0-1.621 1.62ZM20.854 47.514v1.21h.814c.279-.513.682-.91 1.21-1.188a3.778 3.778 0 0 1 1.826-.44c1.159 0 2.046.44 2.662 1.32.63.88.946 2.149.946 3.806v1.87h-3.498v-1.54c0-.733-.14-1.276-.418-1.628-.279-.367-.704-.55-1.276-.55-.69 0-1.203.315-1.54.946-.337.616-.506 1.562-.506 2.838v3.74h4.334V61H15.2v-3.102h2.552v-7.282h-2.838v-3.102h5.94ZM43.8 61h-3.432v-1.232h-.814A3.272 3.272 0 0 1 38.19 61c-.572.279-1.217.418-1.936.418-.997 0-1.855-.227-2.574-.682-.704-.455-1.247-1.107-1.628-1.958-.381-.865-.572-1.892-.572-3.08v-8.184h3.432v7.524c0 1.041.227 1.84.682 2.398.47.543 1.151.814 2.046.814.895 0 1.57-.271 2.024-.814.47-.543.704-1.342.704-2.398v-7.524H43.8V61Zm11.792.352a4.462 4.462 0 0 1-2.024-.462c-.616-.308-1.063-.711-1.342-1.21h-.814V61H47.98V42.344h3.432v6.49h.814c.279-.499.726-.902 1.342-1.21a4.462 4.462 0 0 1 2.024-.462c1.173 0 2.215.293 3.124.88.924.587 1.628 1.415 2.112 2.486.499 1.07.748 2.317.748 3.74 0 1.408-.25 2.647-.748 3.718-.484 1.07-1.188 1.9-2.112 2.486-.91.587-1.95.88-3.124.88Zm-.88-3.102c1.1 0 1.958-.36 2.574-1.078.63-.719.946-1.694.946-2.926 0-1.232-.315-2.2-.946-2.904-.616-.719-1.474-1.078-2.574-1.078-1.1 0-1.965.36-2.596 1.078-.616.704-.924 1.68-.924 2.926 0 1.232.308 2.207.924 2.926.63.704 1.496 1.056 2.596 1.056Zm12.474-10.736 3.586 9.724h2.046l-.814 2.662h-3.806L63.6 47.514h3.586Zm6.138 14.96c-.367 1.085-.91 1.914-1.628 2.486-.719.572-1.599.858-2.64.858-1.305 0-2.34-.352-3.102-1.056-.748-.704-1.188-1.73-1.32-3.08h3.08c.161.44.337.748.528.924.205.19.462.286.77.286s.557-.11.748-.33c.205-.205.389-.55.55-1.034l4.378-14.014h3.322l-4.686 14.96ZM311.948 44.4l6.3 16.2h2.628l-1.188 3.6h-4.356l-7.74-19.8h4.356Zm8.82 24.696c-.528 1.488-1.296 2.64-2.304 3.456a5.34 5.34 0 0 1-3.456 1.224c-1.92 0-3.444-.516-4.572-1.548-1.128-1.008-1.764-2.46-1.908-4.356h3.6c.36.84.732 1.428 1.116 1.764.408.36.924.54 1.548.54.576 0 1.044-.18 1.404-.54.384-.36.744-.948 1.08-1.764l8.172-23.472h4.032l-8.712 24.696Zm-32.58-13.356-7.38-11.34h4.752l5.4 8.28.396 1.044h.36l.396-1.044 5.652-8.28h4.428l-7.452 10.98L301.76 66h-4.824l-4.968-7.488-.396-1.044h-.36l-.396 1.044-5.04 7.488h-4.536l6.948-10.26ZM264.5 66.576c-2.112 0-3.972-.468-5.58-1.404-1.584-.96-2.82-2.292-3.708-3.996-.888-1.728-1.332-3.72-1.332-5.976s.444-4.236 1.332-5.94c.888-1.728 2.124-3.06 3.708-3.996 1.608-.96 3.468-1.44 5.58-1.44s3.96.48 5.544 1.44c1.608.936 2.856 2.268 3.744 3.996.888 1.704 1.332 3.684 1.332 5.94 0 2.256-.444 4.248-1.332 5.976-.888 1.704-2.136 3.036-3.744 3.996-1.584.936-3.432 1.404-5.544 1.404Zm0-3.744c2.064 0 3.684-.684 4.86-2.052 1.2-1.368 1.8-3.228 1.8-5.58s-.6-4.212-1.8-5.58c-1.176-1.368-2.796-2.052-4.86-2.052-2.064 0-3.696.684-4.896 2.052-1.176 1.368-1.764 3.228-1.764 5.58s.588 4.212 1.764 5.58c1.2 1.368 2.832 2.052 4.896 2.052ZM236.528 44.4v1.656h1.08c.456-.72 1.092-1.272 1.908-1.656.816-.384 1.74-.576 2.772-.576 1.92 0 3.432.636 4.536 1.908 1.104 1.248 1.656 2.964 1.656 5.148v2.88h-4.104v-2.304c0-1.272-.288-2.232-.864-2.88-.576-.672-1.416-1.008-2.52-1.008-1.392 0-2.436.588-3.132 1.764-.696 1.152-1.044 2.868-1.044 5.148v7.776h7.488V66H228.32v-3.744h4.536V48.144H227.6V44.4h8.928Zm-35.568 0h3.96v2.16H206c.504-.816 1.296-1.476 2.376-1.98 1.104-.504 2.304-.756 3.6-.756 1.92 0 3.612.48 5.076 1.44 1.488.936 2.628 2.268 3.42 3.996.816 1.704 1.224 3.684 1.224 5.94 0 2.256-.408 4.248-1.224 5.976-.792 1.704-1.932 3.036-3.42 3.996-1.464.936-3.156 1.404-5.076 1.404-1.296 0-2.496-.252-3.6-.756-1.08-.504-1.872-1.164-2.376-1.98h-1.08v9.36h-3.96V44.4Zm10.296 18.432c2.016 0 3.6-.684 4.752-2.052 1.152-1.368 1.728-3.228 1.728-5.58s-.576-4.212-1.728-5.58c-1.152-1.368-2.736-2.052-4.752-2.052-2.016 0-3.6.684-4.752 2.052-1.152 1.368-1.728 3.228-1.728 5.58s.576 4.212 1.728 5.58c1.152 1.368 2.736 2.052 4.752 2.052Zm-18 2.448c0 1.704-.408 3.192-1.224 4.464-.816 1.272-1.992 2.256-3.528 2.952-1.536.72-3.336 1.08-5.4 1.08-1.92 0-3.636-.3-5.148-.9-1.488-.576-2.664-1.404-3.528-2.484-.864-1.056-1.332-2.28-1.404-3.672h3.888c.408 1.08 1.152 1.92 2.232 2.52 1.104.624 2.424.936 3.96.936 1.944 0 3.456-.468 4.536-1.404 1.104-.912 1.656-2.196 1.656-3.852v-2.304h-1.08c-.528.72-1.32 1.296-2.376 1.728a8.49 8.49 0 0 1-3.312.648c-1.872 0-3.528-.432-4.968-1.296-1.44-.888-2.556-2.124-3.348-3.708-.792-1.584-1.188-3.42-1.188-5.508 0-2.112.396-3.972 1.188-5.58.792-1.608 1.908-2.856 3.348-3.744 1.44-.888 3.096-1.332 4.968-1.332 1.2 0 2.316.228 3.348.684 1.056.456 1.836 1.068 2.34 1.836h1.08V44.4h3.96v20.88Zm-16.272-10.8c0 2.136.552 3.828 1.656 5.076 1.128 1.224 2.664 1.836 4.608 1.836 1.944 0 3.468-.612 4.572-1.836 1.128-1.248 1.692-2.94 1.692-5.076 0-2.136-.564-3.816-1.692-5.04-1.104-1.248-2.628-1.872-4.572-1.872s-3.48.624-4.608 1.872c-1.104 1.224-1.656 2.904-1.656 5.04ZM149.84 44.4v1.728h2.844l-2.34 1.44c.072-1.152.456-2.064 1.152-2.736.696-.672 1.608-1.008 2.736-1.008 1.032 0 1.908.396 2.628 1.188.72.768 1.164 1.788 1.332 3.06l-2.34-1.728h4.608l-2.16 1.224c.072-1.128.492-2.028 1.26-2.7.792-.696 1.776-1.044 2.952-1.044 1.416 0 2.556.564 3.42 1.692.888 1.128 1.332 2.604 1.332 4.428V66h-3.96V51.6c0-1.104-.204-1.932-.612-2.484-.384-.552-.972-.828-1.764-.828s-1.392.276-1.8.828c-.384.552-.576 1.38-.576 2.484V66h-3.96V51.6c0-1.104-.204-1.932-.612-2.484-.384-.552-.972-.828-1.764-.828s-1.392.276-1.8.828c-.384.552-.576 1.38-.576 2.484V66h-3.96V44.4h3.96Zm-17.1 0v17.856h7.2V66h-18.36v-3.744h7.2V48.144h-7.2V44.4h11.16Zm-2.268-3.312c-.984 0-1.764-.24-2.34-.72-.552-.504-.828-1.2-.828-2.088 0-.888.276-1.572.828-2.052.576-.504 1.356-.756 2.34-.756.984 0 1.752.252 2.304.756.576.48.864 1.164.864 2.052 0 .888-.288 1.584-.864 2.088-.552.48-1.32.72-2.304.72Z"/>
</svg>
